<?xml version="1.0" encoding="UTF-8"?>
<svg id="Layer_1" xmlns="http://www.w3.org/2000/svg" version="1.1" viewBox="0 0 94 34">
  <!-- Generator: Adobe Illustrator 29.2.1, SVG Export Plug-In . SVG Version: 2.1.0 Build 116)  -->
  <defs>
    <style>
      .st0 {
        fill: #ff6b00;
      }

      .st1 {
        fill: #101010;
      }
    </style>
  </defs>
  <path class="st0" d="M89,27c-1.4,0-2.6-.5-3.6-1.4-1-1-1.4-2.1-1.4-3.6s.5-2.6,1.4-3.6c1-1,2.1-1.4,3.6-1.4s2.6.5,3.6,1.4c1,1,1.4,2.1,1.4,3.6s-.5,2.6-1.4,3.6c-1,1-2.1,1.4-3.6,1.4Z"/>
  <path class="st1" d="M6.6,6.6l4.2,14.4h.2l4.2-14.4h6.2l-6.7,20.4h-7.5L.3,6.6h6.3ZM22.7,27v-15.3h5.5v15.3h-5.5ZM25.4,10.2c-.7,0-1.4-.2-1.9-.7-.5-.5-.8-1.1-.8-1.8s.3-1.3.8-1.8c.5-.5,1.2-.7,1.9-.7s1.4.2,1.9.7c.5.5.8,1.1.8,1.8s-.3,1.3-.8,1.8c-.5.5-1.2.7-1.9.7ZM35,11.7l2.2,4.8,2.4-4.8h5.5l-4.1,7.7,4.3,7.6h-5.4l-2.6-4.8-2.5,4.8h-5.5l4.3-7.6-4.1-7.7h5.5ZM50.5,27.2c-1,0-1.8-.2-2.6-.5-.7-.3-1.3-.8-1.8-1.5-.4-.7-.6-1.5-.6-2.5s.1-1.6.4-2.1c.3-.6.7-1.1,1.2-1.4.5-.4,1.1-.7,1.8-.9.7-.2,1.4-.3,2.2-.4.9,0,1.5-.1,2.1-.2.5,0,.9-.2,1.1-.4.2-.2.4-.4.4-.7h0c0-.4-.2-.7-.5-1-.3-.2-.7-.3-1.2-.3s-1,.1-1.3.3c-.3.2-.5.6-.6,1.1h-5c0-.9.4-1.8.9-2.6.5-.8,1.3-1.4,2.3-1.9,1-.5,2.3-.7,3.8-.7s2.1.1,2.9.4c.9.3,1.6.6,2.2,1.1.6.5,1.1,1,1.4,1.6.3.6.5,1.3.5,2v10.5h-5.1v-2.2h-.1c-.3.6-.7,1-1.1,1.4-.4.3-.9.6-1.5.8-.5.2-1.2.2-1.8.2ZM52.3,23.8c.4,0,.8,0,1.2-.3.4-.2.7-.4.9-.7.2-.3.4-.7.4-1.2v-1.3c-.1,0-.3.1-.5.2-.2,0-.3.1-.5.2-.2,0-.4,0-.6.1-.2,0-.4,0-.6.1-.4,0-.8.2-1.1.3-.3.1-.5.3-.6.5-.1.2-.2.4-.2.7,0,.4.1.8.4,1,.3.2.7.3,1.1.3ZM67.8,18.4v8.6h-5.5v-15.3h5.4v2.9h.1c.3-1,.9-1.7,1.7-2.3.8-.6,1.7-.8,2.9-.8s2,.2,2.8.7c.8.5,1.4,1.2,1.9,2,.4.9.7,1.9.7,3v9.7h-5.5v-8.6c0-.8-.2-1.3-.6-1.8-.4-.4-.9-.7-1.6-.7s-.8.1-1.2.3c-.3.2-.6.5-.8.8-.2.4-.3.8-.3,1.3Z"/>
</svg>