<?xml version="1.0" encoding="UTF-8"?>
<svg id="Layer_2" data-name="Layer 2" xmlns="http://www.w3.org/2000/svg" xmlns:xlink="http://www.w3.org/1999/xlink" viewBox="0 0 1124.64 633.62">
  <defs>
    <style>
      .cls-1 {
        fill: url(#linear-gradient);
      }

      .cls-1, .cls-2, .cls-3 {
        stroke-width: 0px;
      }

      .cls-4 {
        font-family: CenturyGothic, 'Century Gothic';
        font-size: 56.38px;
      }

      .cls-4, .cls-3 {
        fill: #fff;
      }
    </style>
    <linearGradient id="linear-gradient" x1="1.04" y1="203.89" x2="360.91" y2="203.89" gradientUnits="userSpaceOnUse">
      <stop offset="0" stop-color="#82c0d6"/>
      <stop offset=".15" stop-color="#7abcd1"/>
      <stop offset=".38" stop-color="#65b2c4"/>
      <stop offset=".66" stop-color="#42a3af"/>
      <stop offset=".97" stop-color="#128d93"/>
      <stop offset="1" stop-color="#0e8b90"/>
    </linearGradient>
  </defs>
  <g id="Layer_1-2" data-name="Layer 1">
    <g>
      <path class="cls-3" d="M459.34,69.42c0-17.05-13.91-30.07-29.4-30.07-17.05,0-30.07,12.79-30.07,28.95,0,14.14,8.53,22.89,32.09,28.95,35.91,9.2,48.02,27.83,48.02,50.27,0,27.15-22.22,48.7-50.04,48.7-29.4,0-50.72-19.75-51.16-49.37h16.61c1.12,21.32,14.59,34.33,34.56,34.33,18.85,0,33.44-14.81,33.44-32.99s-11.89-28.05-33.66-34.33c-23.79-6.73-46.45-14.59-46.45-44.88,0-26.26,21.09-44.66,46.68-44.66s46,19.52,46,45.11h-16.61Z"/>
      <path class="cls-3" d="M489.71,193.29V27.23h50.27c45.78,0,59.47,27.15,59.47,50.04s-14.36,49.14-59.69,49.14h-33.44v66.87h-16.61ZM543.34,111.38c23.11,0,39.5-13.91,39.5-34.56,0-16.61-10.55-34.56-43.09-34.56h-33.44v69.12h37.03Z"/>
      <path class="cls-3" d="M704.03,193.29l-56.33-75.18h16.16c29.4,0,46.9-15.04,46.9-37.7,0-15.71-9.65-38.15-47.8-38.15h-31.64v151.03h-16.6V27.23h50.04c43.31,0,62.61,25.58,62.61,53.63s-20.2,48.25-49.37,50.49l46.9,61.94h-20.87Z"/>
      <path class="cls-3" d="M745.55,193.29V27.23h16.61v166.06h-16.61Z"/>
      <path class="cls-3" d="M904.89,193.29v-125.99h16.61v125.99h-16.61Z"/>
      <path class="cls-3" d="M904.89,165.01l-93.13-137.78h-22.44v166.06h16.61V47.2h.44l98.52,146.09h16.61l-16.61-28.28Z"/>
      <path class="cls-3" d="M1097.66,132.03c-7.64,28.72-37.01,49.15-67.08,49.15-39.52,0-73.16-30.54-73.16-70.72s33.43-71.13,72.48-71.13c23.77,0,47.57,12.59,59.02,32.09h19.3c-9.66-23.32-41.31-47.12-78.56-47.12-48.67,0-88.85,38.39-88.85,85.96s43.54,85.96,89.09,85.96,84.14-34.57,87.75-79.22l-19.98,15.03Z"/>
      <polygon class="cls-3" points="1117.65 117 1097.66 132.03 1067.63 132.03 1067.63 117 1117.65 117"/>
      <polygon class="cls-3" points="1123.38 117 1110.07 117 1108.35 179.02 1123.38 179.02 1123.38 117"/>
      <path class="cls-3" d="M379.74,386.62v-166.06h83.93v15.03h-67.32v60.14h64.86v15.03h-64.86v75.85h-16.6Z"/>
      <path class="cls-3" d="M584.47,220.56v105.91c0,17.65-4.98,29.52-12.3,37.04-7.65,7.88-17.88,10.99-27.64,10.99-21.99,0-39.94-14.81-39.94-48.25v-105.69h-16.61v104.79c0,43.09,24.91,64.19,56.55,64.19,14.21,0,26.93-4.27,36.69-12.68,12.27-10.57,19.86-27.68,19.86-51.06v-105.24h-16.61Z"/>
      <path class="cls-3" d="M841.61,220.56h16.61v105.24c0,41.97-24.46,63.73-56.55,63.73s-56.55-21.1-56.55-64.18v-104.8h16.6v105.69c0,33.44,17.95,48.25,39.95,48.25,19.07,0,39.94-11.89,39.94-48.02v-105.92Z"/>
      <path class="cls-3" d="M984.58,386.62l-56.33-75.18h16.16c29.4,0,46.9-15.03,46.9-37.7,0-15.71-9.65-38.15-47.8-38.15h-31.64v151.03h-16.61v-166.06h50.04c43.31,0,62.61,25.58,62.61,53.63s-20.2,48.25-49.37,50.49l46.9,61.94h-20.87Z"/>
      <path class="cls-3" d="M1033.76,386.62v-166.06h90.89v15.03h-74.28v59.69h71.81v15.03h-71.81v61.26h74.28v15.03h-90.89Z"/>
      <g>
        <rect class="cls-3" x="668.91" y="320.59" width="16.61" height="1.76"/>
        <rect class="cls-3" x="630.76" y="220.56" width="92.68" height="15.03"/>
        <path class="cls-3" d="M685.52,235.59s9.96,16.8,0,38.71c-12.6,24.41,0,37.09,0,37.09h-16.61s-13.73-13.87,0-36.66c13.4-28.48,0-39.14,0-39.14h16.61Z"/>
        <rect class="cls-3" x="668.91" y="315.11" width="16.61" height="1.76"/>
        <path class="cls-3" d="M687.4,346.51v-6.55h1.97v-10.29h-3.85v-3.6h-16.61v3.6h-4.07v10.29h1.97v6.55l-6.41,10.21c-2.35,3.75-2.21,8.55.35,12.16l13.64,19.19c.33.46.75.81,1.22,1.05v-25.71c-1.41-.81-2.11-2.7-.88-4.57.1-.15.23-.28.38-.38,2.42-1.63,4.99.06,4.99,2.36,0,1.11-.61,2.08-1.51,2.59v25.71c.47-.23.89-.58,1.22-1.05l13.64-19.19c2.56-3.61,2.7-8.41.35-12.16l-6.41-10.21Z"/>
      </g>
      <rect class="cls-3" x="666.92" y="322.35" width="1.99" height="3.72"/>
      <rect class="cls-3" x="685.52" y="322.35" width="2.92" height="3.72"/>
      <rect class="cls-3" x="666.92" y="316.87" width="1.99" height="3.72"/>
      <rect class="cls-3" x="685.52" y="316.87" width="2.92" height="3.72"/>
      <rect class="cls-3" x="666.92" y="311.39" width="1.99" height="3.72"/>
      <rect class="cls-3" x="685.52" y="311.39" width="2.92" height="3.72"/>
      <path class="cls-3" d="M937.21,30.88c-.59-3.69-1.7-7.29-3.27-10.66-1.57-3.37-3.61-6.52-6.07-9.29-2.46-2.77-5.34-5.17-8.54-7.01-3.19-1.85-6.68-3.16-10.26-3.91h0c-.06-.01-.13-.01-.2.01-.19.07-.29.28-.23.48h0c.53,1.36.71,2.83.6,4.29-.11,1.46-.51,2.9-1.06,4.28-1.1,2.76-2.73,5.3-4.42,7.78-1.69,2.48-3.45,4.93-5.13,7.45-1.66,2.52-3.24,5.13-4.5,7.93-.62,1.4-1.18,2.84-1.6,4.32-.22.75-.39,1.49-.54,2.27-.07.37-.14.73-.2,1.12-.05.39-.12.78-.16,1.17-.35,3.08-.14,6.28.77,9.32.47,1.51,1.1,2.99,1.92,4.37.84,1.36,1.83,2.64,3,3.76,1.16,1.12,2.48,2.07,3.91,2.83.71.38,1.45.72,2.21.99.75.29,1.53.62,2.48-.04.3-.2.4-.6.24-.93l-.02-.05c-.26-.52-.56-.75-.87-.94-.16-.09-.32-.15-.49-.19l-.49-.17c-.66-.23-1.3-.51-1.92-.84-.63-.31-1.21-.69-1.79-1.08-.56-.41-1.12-.84-1.63-1.32-1.04-.94-1.94-2.04-2.71-3.22-.77-1.18-1.39-2.47-1.87-3.81-.95-2.7-1.27-5.63-1.09-8.54.02-.36.06-.72.09-1.08.03-.36.09-.74.14-1.11.1-.7.24-1.44.41-2.15.34-1.43.79-2.84,1.34-4.21,1.1-2.75,2.55-5.38,4.14-7.92,1.57-2.55,3.31-5.01,4.96-7.54.83-1.26,1.63-2.54,2.39-3.86.76-1.31,1.46-2.66,2.03-4.09.56-1.42.98-2.91,1.13-4.46.12-1.31,0-2.66-.35-3.94,3.25.88,6.36,2.23,9.18,4.02,3.01,1.9,5.68,4.31,7.92,7.05,2.25,2.74,4.07,5.82,5.43,9.07,1.36,3.26,2.27,6.69,2.69,10.18.42,3.48.34,7.01-.31,10.41-.65,3.39-1.87,6.66-3.75,9.47-.93,1.4-2.02,2.69-3.25,3.82-1.22,1.13-2.59,2.1-4.05,2.87-1.46.78-3.02,1.38-4.63,1.81-.8.22-1.64.38-2.45.52-.41.05-.78.12-1.22.17h-.1c.5-3.46,1.14-7.03,1.79-10.62.95-5.24,1.88-10.51,2.38-15.51.25-2.5.39-4.93.4-7.24,0-2.31-.14-4.49-.41-6.48-.27-1.99-.68-3.8-1.16-5.36-.48-1.56-1.03-2.87-1.53-3.93-.51-1.05-.97-1.85-1.3-2.38-.33-.53-.51-.81-.51-.81,0,0,.16.29.47.83.3.55.71,1.36,1.16,2.43.44,1.07.92,2.4,1.31,3.96.39,1.56.7,3.36.86,5.33.16,1.97.19,4.12.07,6.38-.13,2.26-.39,4.64-.76,7.09-.75,4.9-1.95,10.06-3.16,15.23-1.22,5.18-2.45,10.38-3.21,15.41-.38,2.51-.65,4.97-.72,7.34-.08,2.37.02,4.64.33,6.75.3,2.1.82,4.03,1.46,5.68.44,1.14.94,2.15,1.44,3.02h5.25c-.07-.08-.14-.16-.22-.25-.25-.27-.54-.67-.85-1.07-.61-.84-1.28-1.92-1.88-3.25-.61-1.34-1.14-2.94-1.49-4.77-.37-1.83-.58-3.88-.61-6.08-.05-2.2.08-4.55.32-6.99.01-.15.03-.3.05-.46l1.09-.14c.46-.07.98-.17,1.47-.26.97-.2,1.91-.43,2.84-.72,1.87-.58,3.68-1.36,5.38-2.36,1.7-.99,3.27-2.2,4.65-3.59,1.39-1.38,2.59-2.94,3.6-4.59,2.03-3.31,3.24-7.03,3.8-10.77.56-3.75.49-7.55-.1-11.24Z"/>
      <g>
        <path class="cls-3" d="M916.18,47.56c1.77-.43,3.12-.86,4.57-1.97,1.3-.99,2.46-2.17,3.45-3.47.98-1.28,1.79-2.69,2.4-4.18.56-1.36,1.33-3.26,1.19-4.76"/>
        <path class="cls-2" d="M916.06,47.08c4.91-.8,8.45-4.88,10.44-9.2.64-1.49,1.36-3.03,1.29-4.69.15,1.66-.5,3.26-1.06,4.79-1.8,4.57-5.44,9.03-10.44,10.08,0,0-.24-.97-.24-.97h0Z"/>
      </g>
      <g>
        <path class="cls-3" d="M917.61,41.61c-1.77-.43-3.12-.86-4.57-1.97-1.3-.99-2.46-2.17-3.45-3.47-.98-1.28-1.79-2.69-2.4-4.18-.56-1.36-1.33-3.26-1.19-4.76"/>
        <path class="cls-2" d="M917.49,42.1c-5-1.05-8.63-5.51-10.44-10.08-.57-1.53-1.21-3.13-1.06-4.79-.06,1.66.65,3.2,1.29,4.69,1.99,4.32,5.54,8.4,10.44,9.2,0,0-.24.97-.24.97h0Z"/>
      </g>
      <g>
        <path class="cls-3" d="M918.25,32.72c1.34-.33,2.36-.65,3.47-1.49.99-.75,1.87-1.64,2.62-2.63.74-.97,1.35-2.04,1.82-3.17.43-1.03,1.01-2.47.9-3.61"/>
        <path class="cls-2" d="M918.14,32.23c4.62-.69,8.51-5.94,8.92-10.41.12,1.26-.36,2.48-.78,3.64-1.34,3.49-4.11,6.92-7.91,7.74,0,0-.24-.97-.24-.97h0Z"/>
      </g>
    </g>
    <path class="cls-1" d="M1.28,383.35v-28.86c0-1.79,1.42-3.25,3.16-3.25h2.14c31.23,0,62.49.96,93.67-.3,24.93-1.01,56.63-22.52,56.27-58.22-.14-13.61-5.84-25.06-14.13-35.28-14.32-17.65-31.99-31.36-49.91-44.79-19.32-14.49-38.88-28.66-57.88-43.57-14.11-11.07-24.33-25.41-29.85-42.98C-6,91.94,7.22,55.39,37.12,36.62c16.08-10.1,33.48-15.48,52.42-15.47,89.07.02,178.15,0,267.22.01.38,0,.77.01,1.16.04,1.67.1,2.99,1.52,2.99,3.24v30.02c0,1.79-1.42,3.25-3.16,3.25h-157.22c-1.75,0-3.16,1.45-3.16,3.25v112.86c0,1.79,1.42,3.25,3.16,3.25h96.43c1.75,0,3.16,1.45,3.16,3.25v30.12c0,1.79-1.42,3.25-3.16,3.25h-96.72c-1.68,0-3.07,1.35-3.16,3.08-.05.99-.09,1.9-.09,2.82.05,23.82.16,47.65.18,71.47.03,32.24-15.08,56.06-39.64,74.46-19.15,14.35-40.94,20.71-64.39,20.95-29.59.31-59.18.09-88.77.09h0c-1.72,0-3.11-1.43-3.11-3.2ZM156.21,208.17V61.11c0-1.79-1.42-3.25-3.17-3.25-23.53,0-46.72-.02-69.92,0-29.1.03-49.65,28.09-41.49,56.7,4.45,15.6,14.85,26.75,27.17,35.86,20.02,14.8,40.64,28.74,60.79,43.35,7.33,5.32,14.32,11.12,21.5,16.94,2.07,1.68,5.12.16,5.12-2.55Z"/>
    <g>
      <text class="cls-4" transform="translate(4.2 616.33)"><tspan x="0" y="0">RABE ALMUSTAQBAL GENERAL TRADING L.L.C</tspan></text>
      <g>
        <path class="cls-3" d="M24.66,481.55c2.09,1.96,3.73,4.47,4.92,7.53,1.19,3.06,1.79,6.17,1.79,9.31,0,2.91-.37,4.99-1.12,6.24-.75,1.25-1.92,1.87-3.53,1.87-1.37,0-3.16-.15-5.37-.45-3.1-.36-5.69-.54-7.78-.54-1.55,0-3.06.25-4.52.76-1.46.51-2.52,1.2-3.17,2.09-.24,1.19-.36,2.7-.36,4.55s.16,4.08.49,6.73c.33,2.64.7,5.27,1.11,7.89l1.25,9.18-3.34,1.96-.79-.27-1.23-9.45c-.47-2.97-.88-5.94-1.23-8.91-.35-2.97-.53-5.38-.53-7.22s.47-3.67,1.43-5.48c.95-1.81,2.41-3.31,4.37-4.5,1.96-1.19,4.34-1.78,7.13-1.78,2.26,0,5.47.24,9.62.71.71.12,1.78.24,3.21.36.06-1.19.09-2.2.09-3.03,0-2.44-.46-4.92-1.38-7.44-.92-2.53-2.15-4.59-3.7-6.19-1.55-1.6-3.18-2.41-4.9-2.41-1.19,0-2.36.49-3.52,1.47-1.16.98-2.14,2.35-2.94,4.1-.8,1.75-1.35,3.76-1.65,6.02l-2.94.45-.71-.45c.3-3.15,1.04-5.94,2.24-8.38,1.19-2.44,2.68-4.32,4.47-5.66s3.67-2.01,5.63-2.01c2.56,0,4.89.98,6.98,2.94Z"/>
        <path class="cls-3" d="M38.46,506.73c-.68-.68-1.03-1.5-1.03-2.45s.34-1.77,1.03-2.45,1.5-1.03,2.45-1.03,1.78.34,2.5,1.03c.71.68,1.07,1.5,1.07,2.45s-.36,1.77-1.07,2.45c-.71.68-1.55,1.02-2.5,1.02s-1.77-.34-2.45-1.02Z"/>
        <path class="cls-3" d="M72.97,481.55c2.09,1.96,3.73,4.47,4.92,7.53,1.19,3.06,1.79,6.17,1.79,9.31,0,2.91-.37,4.99-1.12,6.24-.75,1.25-1.92,1.87-3.53,1.87-1.37,0-3.16-.15-5.37-.45-3.1-.36-5.69-.54-7.78-.54-1.55,0-3.06.25-4.52.76-1.46.51-2.52,1.2-3.17,2.09-.24,1.19-.36,2.7-.36,4.55s.16,4.08.49,6.73c.33,2.64.7,5.27,1.11,7.89l1.25,9.18-3.34,1.96-.79-.27-1.23-9.45c-.47-2.97-.88-5.94-1.23-8.91-.35-2.97-.53-5.38-.53-7.22s.47-3.67,1.43-5.48c.95-1.81,2.41-3.31,4.37-4.5,1.96-1.19,4.34-1.78,7.13-1.78,2.26,0,5.47.24,9.62.71.71.12,1.78.24,3.21.36.06-1.19.09-2.2.09-3.03,0-2.44-.46-4.92-1.38-7.44-.92-2.53-2.15-4.59-3.7-6.19-1.55-1.6-3.18-2.41-4.9-2.41-1.19,0-2.36.49-3.52,1.47-1.16.98-2.14,2.35-2.94,4.1-.8,1.75-1.35,3.76-1.65,6.02l-2.94.45-.71-.45c.3-3.15,1.04-5.94,2.24-8.38,1.19-2.44,2.68-4.32,4.47-5.66s3.67-2.01,5.63-2.01c2.56,0,4.89.98,6.98,2.94Z"/>
        <path class="cls-3" d="M86.76,506.73c-.68-.68-1.02-1.5-1.02-2.45s.34-1.77,1.02-2.45,1.5-1.03,2.45-1.03,1.78.34,2.5,1.03c.71.68,1.07,1.5,1.07,2.45s-.36,1.77-1.07,2.45c-.71.68-1.55,1.02-2.5,1.02s-1.77-.34-2.45-1.02Z"/>
        <path class="cls-3" d="M101.43,506.96c-2.26-.24-3.95-.5-5.08-.8l.52-3.83.44-.36c1.34.24,3.03.45,5.06.62,2.04.18,3.81.27,5.33.27,3.79,0,7.03-.5,9.74-1.52,2.71-1.01,4.38-2.35,5.02-4.01-.69-6.3-5.17-13.87-13.46-22.73l2.23-3.92h.62c4.57,4.81,8.2,9.4,10.87,13.77s4.01,8.19,4.01,11.45c0,3.62-1.68,6.43-5.04,8.42-3.36,1.99-8.04,2.99-14.04,2.99-1.9,0-3.98-.12-6.24-.36ZM110.87,458.74l-5.08-3.57,3.12-4.72,5.17,3.48-3.21,4.81Z"/>
        <path class="cls-3" d="M133.38,506.73c-.68-.68-1.02-1.5-1.02-2.45s.34-1.77,1.02-2.45,1.5-1.03,2.45-1.03,1.78.34,2.5,1.03c.71.68,1.07,1.5,1.07,2.45s-.36,1.77-1.07,2.45c-.71.68-1.55,1.02-2.5,1.02s-1.77-.34-2.45-1.02Z"/>
        <path class="cls-3" d="M228.79,487.61c.89,3.27,1.34,5.76,1.34,7.49,0,4.28-1.25,7.34-3.76,9.18-2.5,1.84-6.14,2.76-10.91,2.76-1.65,0-3.37-.27-5.17-.8-1.8-.54-3.34-1.22-4.64-2.05-.94,1.01-2.05,1.74-3.31,2.18-1.27.45-2.87.67-4.82.67-1.42,0-2.84-.25-4.29-.76-1.44-.5-2.72-1.26-3.84-2.27-.12,4.04-1.23,7.54-3.32,10.52-2.1,2.97-4.91,5.23-8.44,6.77-3.54,1.54-7.52,2.32-11.95,2.32-4.67,0-8.59-.79-11.77-2.36-3.17-1.58-5.54-3.79-7.1-6.64-1.56-2.85-2.34-6.18-2.34-9.98,0-3.03.45-6.12,1.34-9.27l3.48-1.34.53.36c-.71,3.21-1.07,6.09-1.07,8.65,0,10.81,5.76,16.22,17.29,16.22,2.67,0,5.18-.33,7.53-.98,2.35-.65,4.37-1.54,6.06-2.67,1.69-1.13,2.99-2.38,3.88-3.74,1.07-2.2,1.6-4.61,1.6-7.22,0-2.2-.37-4.58-1.11-7.13s-1.95-6.09-3.61-10.61l3.57-2.58h.53c1.37,4.46,2.7,8.38,4.01,11.76.83,2.14,2.11,3.77,3.83,4.9,1.72,1.13,3.59,1.69,5.62,1.69,1.01,0,1.9-.09,2.67-.27.77-.18,1.48-.47,2.14-.89.65-.89,1.46-2.57,2.41-5.04.95-2.46,1.81-4.95,2.58-7.44l4.1-.62.54.36c-.12.24-.33.83-.62,1.78-.3.83-.88,2.38-1.74,4.63-.86,2.26-1.59,4.04-2.18,5.35,1.01.59,2.25,1.1,3.73,1.51,1.48.42,3.01.62,4.61.62,4.73,0,7.83-1.04,9.31-3.12.24-.71.36-1.66.36-2.85,0-2.2-.44-4.75-1.31-7.67-.88-2.91-1.92-5.67-3.15-8.29l3.48-2.67.53.09c1.37,3.03,2.5,6.18,3.39,9.45ZM205.08,471.21l-5.17-3.56,3.12-4.81,5.17,3.48-3.12,4.9ZM209.45,463.55l-5.08-3.65,3.21-4.72,5.08,3.48-3.21,4.9ZM215.42,471.21l-5.17-3.56,3.21-4.81,5.17,3.48-3.21,4.9Z"/>
        <path class="cls-3" d="M285.27,503.08c.36.27.53.67.53,1.2,0,.77-.37,1.43-1.11,1.96-.74.53-1.77.8-3.07.8-3.92,0-7.04-.67-9.36-2s-3.86-3.49-4.63-6.46c-2.44.59-4.9.89-7.4.89-2.85,0-5.36-.37-7.53-1.11-2.17-.74-3.83-1.78-4.99-3.12-1.16-1.34-1.74-2.87-1.74-4.59,0-2.32.89-4.59,2.67-6.82,1.78-2.23,4.26-4.29,7.44-6.19,3.18-1.9,6.82-3.53,10.92-4.9v-4.9l3.83-1.78.54.27v26.29c0,2.67.39,4.72,1.16,6.15.77,1.43,2.02,2.44,3.74,3.03,1.72.59,4.13.89,7.22.89.83,0,1.43.13,1.78.4ZM267,494.39v-16.93c-3.39,1.01-6.34,2.23-8.87,3.65-2.53,1.43-4.49,2.91-5.88,4.46-1.4,1.55-2.15,3-2.27,4.37.36,1.72,1.54,3.02,3.57,3.88,2.02.86,4.31,1.29,6.86,1.29,2.14,0,4.34-.24,6.6-.71ZM257.11,457.31l-5.08-3.57,3.12-4.72,5.08,3.48-3.12,4.81ZM267.62,457.31l-5.17-3.57,3.21-4.72,5.08,3.48-3.12,4.81Z"/>
        <path class="cls-3" d="M314.15,481.91c2.14,2.2,3.82,4.99,5.04,8.38,1.22,3.39,1.83,6.74,1.83,10.07,0,2.44-.7,4.32-2.09,5.66-1.4,1.34-3.43,2.01-6.11,2.01s-5.53-.64-8.73-1.92c-3.21-1.28-6.36-3.04-9.45-5.3-1.01,1.67-2.07,2.93-3.16,3.79-1.1.86-2.41,1.49-3.92,1.87-1.51.39-3.49.58-5.93.58l1.78-4.37c1.66,0,2.97-.19,3.92-.58.95-.39,1.74-.99,2.36-1.83.62-.83,1.47-2.14,2.54-3.92.3-.47.83-1.57,1.6-3.3,1.25-2.73,2.44-5.08,3.56-7.04,1.13-1.96,2.51-3.68,4.14-5.17,1.63-1.48,3.43-2.23,5.39-2.23,2.67,0,5.08,1.1,7.22,3.3ZM316.73,500.45c0-2.32-.5-4.84-1.51-7.58-1-2.73-2.29-5.05-3.86-6.95-1.57-1.9-3.12-2.85-4.66-2.85-1.18,0-2.29.53-3.33,1.6-1.04,1.07-1.95,2.38-2.75,3.92-.8,1.55-1.7,3.51-2.71,5.88-.59,1.19-1,2.08-1.24,2.67,2.72,1.9,5.44,3.45,8.16,4.63,2.72,1.19,4.94,1.78,6.66,1.78,1.36,0,2.44-.13,3.24-.4s1.43-.7,1.91-1.29c.06-.3.09-.77.09-1.43Z"/>
        <path class="cls-3" d="M333.58,503.88c-2.5-2.11-3.74-5.24-3.74-9.4v-46.7l3.84-.98.52.27-.09,46.26c0,2.32.37,4.14,1.12,5.48.75,1.34,1.97,2.32,3.68,2.94,1.7.62,4.02.94,6.95.94,1.61,0,2.42.54,2.42,1.6,0,.77-.37,1.43-1.11,1.96-.74.53-1.77.8-3.07.8-4.52,0-8.02-1.05-10.52-3.16Z"/>
        <path class="cls-3" d="M396.5,503.08c.36.27.54.7.54,1.29,0,.77-.37,1.41-1.11,1.92-.74.51-1.77.76-3.07.76-4.75,0-8.99-.65-12.7-1.96-3.71-1.31-7.08-3.45-10.12-6.42-7.73,5.59-16.37,8.38-25.94,8.38l1.6-4.37c3.92,0,7.67-.59,11.23-1.78,3.57-1.19,7.04-2.91,10.43-5.17-2.62-2.97-4.95-5.44-7-7.4s-4.23-3.56-6.55-4.81l-.27-.62,2.5-5.17c2.2-.95,4.63-1.68,7.31-2.18s5.41-.76,8.2-.76c2.97,0,5.84.33,8.6.98,2.76.65,5.21,1.6,7.35,2.85l.27.62-1.07,4.01c-.65.54-1.41,1.23-2.27,2.09s-1.74,1.77-2.63,2.72c-1.19,1.25-2.51,2.58-3.97,4.01-1.46,1.43-2.93,2.76-4.41,4.01,2.73,2.38,5.78,4.07,9.13,5.08,3.36,1.01,7.38,1.52,12.08,1.52.89,0,1.51.13,1.87.4ZM363.1,485.61c1.88,1.81,4.4,4.38,7.55,7.71,4.15-3.15,8.43-7.1,12.83-11.85-3.83-1.48-7.94-2.23-12.33-2.23-2.29,0-4.57.21-6.86.62-2.29.42-4.45.98-6.49,1.69,1.64.89,3.4,2.24,5.28,4.06Z"/>
        <path class="cls-3" d="M394.74,502.68c2.05,0,3.93-.18,5.65-.54,1.72-.36,3.21-1.07,4.48-2.14.42-1.78.63-4.01.63-6.68v-45.54l3.76-.98.51.27v46.52c0,3.51-.64,6.24-1.92,8.2-1.28,1.96-3.13,3.33-5.57,4.1-2.44.77-5.56,1.16-9.36,1.16l1.81-4.37Z"/>
        <path class="cls-3" d="M421,507.4l-.52-.27v-59.36l3.93-.98.44.27-.09,59.36-3.75.98Z"/>
        <path class="cls-3" d="M459.71,482.09c2.35,2.55,4.04,4.9,5.08,7.04,1.04,2.14,1.56,4.31,1.56,6.51,0,2.32-.55,4.38-1.65,6.19-1.1,1.81-2.64,3.21-4.63,4.19-1.99.98-4.26,1.47-6.82,1.47s-4.58-.43-6.42-1.29c-1.84-.86-3.27-2.09-4.28-3.7-1.01-1.6-1.52-3.5-1.52-5.7,0-2.32.68-4.9,2.05-7.75,1.37-2.85,3.62-6.24,6.77-10.16l-2.5-1.96,2.05-3.83.54-.18c4.16,3.57,7.41,6.63,9.76,9.18ZM448.89,462.12l-5.08-3.56,3.12-4.72,5.08,3.48-3.12,4.81ZM459.77,501.07c1.54-1.37,2.3-3.24,2.3-5.62,0-2.2-.67-4.41-2.02-6.64-1.35-2.23-3.32-4.65-5.91-7.26-3.11,3.21-5.36,5.99-6.75,8.33-1.39,2.35-2.08,4.41-2.08,6.19,0,2.14.74,3.85,2.22,5.12,1.48,1.28,3.46,1.92,5.94,1.92,2.66,0,4.76-.68,6.29-2.05ZM459.4,462.12l-5.17-3.56,3.21-4.72,5.08,3.48-3.12,4.81Z"/>
        <path class="cls-3" d="M460.65,518.72l.26-.62c4.75-.83,9.01-2.24,12.79-4.23,3.78-1.99,6.72-4.23,8.83-6.73,2.11-2.5,3.16-4.84,3.16-7.04-.06-1.9-.6-4.2-1.64-6.91-1.04-2.7-2.51-5.87-4.42-9.49l3.03-3.3h.62c2.02,3.62,3.64,7.12,4.86,10.47,1.22,3.36,1.83,6.19,1.83,8.51,0,2.56-.68,5.11-2.05,7.67-1.25,2.32-3.12,4.5-5.62,6.55-2.5,2.05-5.41,3.8-8.73,5.26-3.33,1.46-6.83,2.51-10.52,3.16l-2.41-3.3Z"/>
        <path class="cls-3" d="M502.99,503.88c-2.5-2.11-3.74-5.24-3.74-9.4v-46.7l3.84-.98.52.27-.09,46.26c0,2.32.37,4.14,1.12,5.48.75,1.34,1.97,2.32,3.68,2.94,1.7.62,4.02.94,6.95.94,1.61,0,2.42.54,2.42,1.6,0,.77-.37,1.43-1.11,1.96-.74.53-1.77.8-3.07.8-4.52,0-8.02-1.05-10.52-3.16Z"/>
        <path class="cls-3" d="M571.97,503.08c.36.27.54.67.54,1.2,0,.77-.37,1.43-1.11,1.96-.74.53-1.74.8-2.99.8-3.8,0-6.89-.34-9.27-1.03-2.38-.68-4.28-1.69-5.7-3.03s-2.62-3.1-3.56-5.3c-4.52,1.31-8.79,2.67-12.83,4.1-5.65,1.96-10.19,3.33-13.64,4.1-3.45.77-6.75,1.16-9.89,1.16l1.69-4.37c2.5,0,5.21-.34,8.16-1.03,2.94-.68,7.12-1.97,12.52-3.88,3.8-1.31,7.05-2.35,9.76-3.12,2.7-.77,5.15-1.37,7.35-1.78-2.44-.89-5.79-2.58-10.07-5.08-3.86-2.2-6.85-3.71-8.96-4.55-2.11-.83-4.06-1.25-5.84-1.25-2.32,0-4.84.48-7.58,1.43l-.36-.36,1.6-3.92c2.32-1.01,4.69-1.52,7.13-1.52,1.72,0,3.7.45,5.93,1.34,2.23.89,5.33,2.47,9.31,4.72,4.46,2.56,8.09,4.38,10.92,5.48,2.82,1.1,5.45,1.71,7.89,1.83l-1.16,4.28c-2.73.36-5.29.83-7.67,1.43.71,1.49,1.69,2.66,2.94,3.52,1.25.86,2.93,1.49,5.04,1.87,2.11.39,4.8.58,8.07.58.83,0,1.43.13,1.78.4ZM537.57,523.89l-5.08-3.56,3.12-4.72,5.17,3.39-3.21,4.9Z"/>
        <path class="cls-3" d="M601.92,503.08c.36.27.53.67.53,1.2,0,.77-.37,1.43-1.11,1.96-.74.53-1.74.8-2.99.8-6.83,0-11.94-1.57-15.33-4.72-1.37,1.66-3,2.87-4.9,3.61-1.9.74-4.31,1.11-7.22,1.11h-2.5l1.78-4.37h1.6c1.72,0,3.3-.21,4.72-.62,1.43-.42,2.55-1.1,3.39-2.05.59-.95,1.35-2.76,2.27-5.44.92-2.67,1.89-5.94,2.9-9.8l4.28-1.07.71.36c-1.01,3.8-1.86,6.8-2.54,9-.68,2.2-1.44,4.1-2.27,5.7,3.09,2.62,8.05,3.92,14.88,3.92.83,0,1.43.13,1.78.4ZM583.02,471.75l-5.08-3.57,3.12-4.72,5.08,3.48-3.12,4.81ZM593.54,471.75l-5.17-3.57,3.21-4.72,5.08,3.48-3.12,4.81Z"/>
        <path class="cls-3" d="M628.56,503.08c.36.27.54.67.54,1.2,0,.77-.37,1.43-1.11,1.96-.74.53-1.74.8-2.99.8-5.65,0-9.54-1.69-11.68-5.08-1.43,1.84-3.39,3.15-5.88,3.92-2.5.77-5.53,1.16-9.09,1.16l1.78-4.37c2.02,0,3.88-.16,5.57-.49,1.69-.33,3.16-.96,4.41-1.92.42-1.9.62-4.22.62-6.95v-45.54l3.76-.98.51.27v45.9c0,2.44.39,4.37,1.17,5.79.78,1.43,2.02,2.44,3.7,3.03,1.68.59,3.94.89,6.77.89.9,0,1.53.13,1.9.4Z"/>
        <path class="cls-3" d="M626.81,502.68c2.05,0,3.93-.18,5.65-.54,1.72-.36,3.21-1.07,4.48-2.14.42-1.78.63-4.01.63-6.68v-45.54l3.76-.98.51.27v46.52c0,3.51-.64,6.24-1.92,8.2-1.28,1.96-3.13,3.33-5.57,4.1-2.44.77-5.56,1.16-9.36,1.16l1.81-4.37Z"/>
        <path class="cls-3" d="M718.11,503.08c.36.27.54.67.54,1.2,0,.77-.37,1.43-1.11,1.96-.74.53-1.77.8-3.07.8-4.81,0-8.23-1.48-10.25-4.46-.89,7.19-3.33,12.49-7.31,15.91-3.98,3.42-9.39,5.12-16.22,5.12-4.63,0-8.56-.79-11.76-2.36-3.21-1.58-5.62-3.79-7.22-6.64-1.6-2.85-2.41-6.18-2.41-9.98,0-3.03.45-6.12,1.34-9.27l3.48-1.34.53.36c-.71,3.21-1.07,6.09-1.07,8.65,0,5.17,1.44,9.17,4.32,11.99,2.88,2.82,7.35,4.23,13.41,4.23,7.31,0,12.54-2.26,15.69-6.77,1.13-1.78,1.97-4.2,2.54-7.26.56-3.06.85-6.52.85-10.38v-47.06l3.92-.98.45.27-.09,45.9c0,2.44.39,4.37,1.16,5.79.77,1.43,2,2.44,3.7,3.03,1.69.59,3.94.89,6.73.89.89,0,1.51.13,1.87.4Z"/>
        <path class="cls-3" d="M746.1,503.08c.36.27.53.67.53,1.2,0,.77-.37,1.43-1.11,1.96-.74.53-1.74.8-2.99.8-2.44,0-4.83-.39-7.17-1.16-2.35-.77-4.38-1.96-6.11-3.57-1.37,1.66-3.03,2.87-4.99,3.61-1.96.74-4.43,1.11-7.4,1.11h-2.41l1.78-4.37h1.78c1.96,0,3.59-.22,4.9-.67,1.31-.45,2.44-1.11,3.39-2,.59-.95,1.35-2.78,2.27-5.48.92-2.7,1.86-5.96,2.81-9.76l4.28-1.07.71.36c-.89,3.51-1.71,6.42-2.45,8.74-.74,2.32-1.53,4.31-2.36,5.97,1.43,1.19,3.22,2.14,5.39,2.85,2.17.71,4.62,1.07,7.35,1.07.83,0,1.43.13,1.78.4ZM731.22,523.89l-5.08-3.56,3.12-4.72,5.17,3.39-3.21,4.9Z"/>
        <path class="cls-3" d="M789.33,503.08c.36.27.54.67.54,1.2,0,.77-.37,1.43-1.11,1.96-.74.53-1.77.8-3.08.8h-2.85c-3.09,0-6.09-.27-9-.8-2.91-.54-5.59-1.31-8.02-2.32-5.29,2.08-11.56,3.12-18.81,3.12h-4.46l1.82-4.37h5.27c3.82,0,7.66-.47,11.54-1.43-2.25-1.54-4-3.27-5.25-5.17-1.25-1.9-1.88-3.95-1.88-6.15,0-2.5.66-4.93,1.98-7.31,1.32-2.38,3.02-4.29,5.09-5.75s4.16-2.18,6.26-2.18c1.92,0,3.77.64,5.54,1.92,1.77,1.28,3.2,2.94,4.28,4.99,1.08,2.05,1.62,4.12,1.62,6.19,0,5.53-2.56,9.98-7.67,13.37,3.68,1.01,7.93,1.52,12.75,1.52h3.57c.89,0,1.51.13,1.87.4ZM762.86,462.75l-5.08-3.57,3.12-4.72,5.08,3.48-3.12,4.81ZM760.36,494.92c1.37,1.72,3.3,3.18,5.8,4.37,2.62-1.19,4.67-2.7,6.15-4.55,1.48-1.84,2.22-3.89,2.22-6.15,0-1.48-.39-2.96-1.18-4.41-.79-1.46-1.77-2.64-2.96-3.56-1.19-.92-2.4-1.38-3.62-1.38s-2.57.51-3.88,1.52c-1.31,1.01-2.4,2.3-3.27,3.88-.87,1.58-1.31,3.13-1.31,4.68,0,2.02.68,3.89,2.05,5.62ZM773.37,462.75l-5.17-3.57,3.21-4.72,5.08,3.48-3.12,4.81Z"/>
        <path class="cls-3" d="M819.18,503.08c.36.27.54.67.54,1.2,0,.77-.37,1.43-1.11,1.96-.74.53-1.74.8-2.99.8-6.83,0-11.94-1.57-15.33-4.72-1.37,1.66-3,2.87-4.9,3.61-1.9.74-4.31,1.11-7.22,1.11h-2.5l1.78-4.37h1.6c1.72,0,3.3-.21,4.72-.62,1.43-.42,2.55-1.1,3.39-2.05.59-.95,1.35-2.76,2.27-5.44.92-2.67,1.89-5.94,2.9-9.8l4.28-1.07.71.36c-1.01,3.8-1.86,6.8-2.54,9-.68,2.2-1.44,4.1-2.27,5.7,3.09,2.62,8.05,3.92,14.88,3.92.83,0,1.43.13,1.78.4ZM800.29,471.75l-5.08-3.57,3.12-4.72,5.08,3.48-3.12,4.81ZM810.81,471.75l-5.17-3.57,3.21-4.72,5.08,3.48-3.12,4.81Z"/>
        <path class="cls-3" d="M890.31,503.08c.36.27.54.67.54,1.2,0,.77-.37,1.43-1.11,1.96-.74.53-1.74.8-2.99.8-2.32,0-4.58-.34-6.77-1.03-2.2-.68-4.1-1.71-5.7-3.07-1.13,1.43-2.54,2.47-4.23,3.12-1.69.65-3.76.98-6.19.98-1.66,0-3.4-.27-5.21-.8-1.81-.54-3.37-1.22-4.68-2.05-.95,1.01-2.07,1.74-3.34,2.18-1.28.45-2.9.67-4.86.67-2.73,0-5.36-.37-7.89-1.11-2.53-.74-4.71-1.8-6.55-3.16-1.6,1.55-3.62,2.64-6.06,3.3-2.44.65-5.65.98-9.62.98l1.78-4.37c2.5,0,4.65-.19,6.46-.58,1.81-.39,3.58-1.11,5.3-2.18,1.13-1.78,2.58-5.41,4.37-10.87l4.19-.62.53.27c-.77,2.44-1.51,4.53-2.23,6.28-.71,1.75-1.46,3.25-2.23,4.5,1.31,1.01,3.13,1.78,5.48,2.32,2.35.54,4.83.83,7.44.89,1.72,0,3.24-.39,4.55-1.16.65-.95,1.48-2.67,2.5-5.17,1.01-2.5,1.84-4.93,2.5-7.31l4.19-.62.45.36c-.89,2.44-1.72,4.69-2.5,6.77-.77,2.08-1.49,3.74-2.14,4.99,1.07.59,2.36,1.1,3.88,1.51,1.51.42,3.08.62,4.68.62,2.91,0,5.26-.83,7.04-2.5.48-1.37.85-2.96,1.11-4.77.27-1.81.4-3.73.4-5.75,0-.89-.06-2.17-.18-3.83l3.74-1.52.62.18c.06.89.09,2.17.09,3.83,0,4.46-.48,8.08-1.43,10.87,1.48,1.07,3.25,1.92,5.3,2.54s4.38.94,7,.94c.83,0,1.43.13,1.78.4Z"/>
        <path class="cls-3" d="M938.88,504.28c0,.83-.42,1.5-1.25,2-.83.51-1.84.76-3.03.76-1.6,0-3.19-.33-4.77-.98-1.58-.65-3.02-1.63-4.32-2.94-1.19,3.27-3.54,4.9-7.04,4.9-2.85,0-6.02-.71-9.49-2.14-3.48-1.43-6.7-3.21-9.67-5.35-1.13,1.78-2.23,3.13-3.3,4.05-1.07.92-2.32,1.56-3.74,1.92s-3.27.54-5.53.54l1.78-4.37c1.37,0,2.51-.24,3.43-.71.92-.47,1.77-1.2,2.54-2.18.77-.98,1.69-2.42,2.76-4.32l1.07-1.96c1.78-3.33,3.28-5.97,4.5-7.93,1.22-1.96,2.61-3.61,4.19-4.95,1.57-1.34,3.25-2.01,5.04-2.01,1.66,0,3.21.59,4.63,1.78s2.78,2.87,4.06,5.04c1.28,2.17,2.72,5.07,4.32,8.69.89,2.08,1.81,3.73,2.76,4.95.95,1.22,2.11,2.12,3.48,2.72,1.37.59,3.06.89,5.08.89,1.66,0,2.5.54,2.5,1.6ZM921.06,502.68c.89-.65,1.48-1.72,1.78-3.21-.48-.83-.8-1.48-.98-1.96-2.08-4.81-3.92-8.42-5.53-10.83s-3.06-3.61-4.37-3.61c-1.07,0-2.14.57-3.21,1.69-1.07,1.13-2.14,2.62-3.21,4.46-1.07,1.84-2.47,4.43-4.19,7.75,2.91,2.08,5.81,3.71,8.69,4.9,2.88,1.19,5.36,1.78,7.44,1.78,1.49,0,2.67-.33,3.57-.98Z"/>
        <path class="cls-3" d="M936.5,502.68c2.05,0,3.93-.18,5.65-.54,1.72-.36,3.21-1.07,4.48-2.14.42-1.78.63-4.01.63-6.68v-45.54l3.76-.98.51.27v46.52c0,3.51-.64,6.24-1.92,8.2-1.28,1.96-3.13,3.33-5.57,4.1-2.44.77-5.56,1.16-9.36,1.16l1.81-4.37Z"/>
        <path class="cls-3" d="M962.76,507.4l-.52-.27v-59.36l3.93-.98.44.27-.09,59.36-3.75.98Z"/>
        <path class="cls-3" d="M1034.32,503.08c.35.27.53.7.53,1.29,0,.77-.35,1.41-1.06,1.92-.71.51-1.71.76-3,.76-4.83,0-9.21-.79-13.16-2.36-3.94-1.57-7.56-3.97-10.86-7.17-4.3,3.39-7.76,6.31-10.38,8.78-2.62,2.46-4.77,5.14-6.45,8.02-1.68,2.88-2.52,5.96-2.52,9.22s1,6.3,3,8.73c2,2.44,4.82,4.29,8.47,5.57,3.65,1.28,7.94,1.92,12.88,1.92,2.71,0,5.57-.24,8.6-.71,3.03-.48,5.95-1.13,8.78-1.96l.62.36-1.41,3.92c-2.94.95-5.76,1.65-8.46,2.09-2.7.45-5.61.67-8.72.67-5.58,0-10.49-.79-14.72-2.36-4.23-1.58-7.5-3.86-9.83-6.86-2.32-3-3.48-6.58-3.48-10.74s.95-7.68,2.86-11.1c1.91-3.42,4.31-6.51,7.22-9.27,2.9-2.76,6.5-5.78,10.78-9.05-2.4-2.5-4.6-4.63-6.6-6.42-1.99-1.78-4.1-3.39-6.33-4.81l-.17-.62,2.37-5.17c2.17-.95,4.56-1.68,7.17-2.18,2.61-.5,5.26-.76,7.96-.76,2.99,0,5.83.33,8.53.98,2.7.65,5.13,1.6,7.3,2.85l.26.54-1.14,4.1c-1.94,2.02-4.01,3.97-6.21,5.84-2.2,1.87-4.65,3.88-7.35,6.02,3.01,2.62,6.36,4.53,10.04,5.75,3.69,1.22,7.92,1.83,12.7,1.83.82,0,1.42.13,1.77.4ZM1007.22,492.34c3.03-2.2,5.6-4.14,7.69-5.84,2.09-1.69,3.87-3.37,5.32-5.04-3.77-1.48-7.78-2.23-12.03-2.23-4.49,0-8.83.77-13.02,2.32,3.3,2.14,7.31,5.73,12.03,10.78Z"/>
        <path class="cls-3" d="M1064.79,503.08c.36.27.54.67.54,1.2,0,.77-.37,1.43-1.11,1.96-.74.53-1.74.8-2.99.8-6.83,0-11.94-1.57-15.33-4.72-1.37,1.66-3,2.87-4.9,3.61-1.9.74-4.31,1.11-7.22,1.11h-2.5l1.78-4.37h1.6c1.72,0,3.3-.21,4.72-.62,1.43-.42,2.55-1.1,3.39-2.05.59-.95,1.35-2.76,2.27-5.44.92-2.67,1.89-5.94,2.9-9.8l4.28-1.07.71.36c-1.01,3.8-1.86,6.8-2.54,9-.68,2.2-1.44,4.1-2.27,5.7,3.09,2.62,8.05,3.92,14.88,3.92.83,0,1.43.13,1.78.4ZM1042.51,523.89l-5.08-3.56,3.12-4.72,5.17,3.39-3.21,4.9ZM1053.21,523.89l-5.17-3.56,3.21-4.72,5.08,3.39-3.12,4.9Z"/>
        <path class="cls-3" d="M1062.99,502.68h.62c2.46,0,4.59-.22,6.38-.67,1.79-.45,3.15-1.08,4.09-1.92.53-1.6.79-3.24.79-4.9,0-4.04-1.34-8.85-4.01-14.44l3.55-2.67h.55c1.4,2.97,2.44,5.76,3.14,8.38.7,2.62,1.05,4.81,1.05,6.59,0,2.08-.3,4.12-.89,6.11-.59,1.99-1.4,3.49-2.41,4.5-2.26,2.26-6.92,3.39-13.99,3.39h-.62l1.76-4.37ZM1073.35,523.89l-5.08-3.56,3.12-4.72,5.17,3.39-3.21,4.9Z"/>
        <path class="cls-3" d="M1088.5,517.38l.18-.54c3.5-1.01,6.72-2.42,9.67-4.23,2.95-1.81,5.29-3.8,7.04-5.97,1.75-2.17,2.63-4.23,2.63-6.19-.11-1.9-.72-4.32-1.81-7.26s-2.51-6.1-4.25-9.49l3.03-3.3h.54c2.02,3.62,3.65,7.15,4.9,10.56,1.25,3.42,1.87,6.28,1.87,8.6,0,3.03-.95,5.97-2.85,8.82-1.9,2.79-4.46,5.21-7.67,7.26-3.21,2.05-6.86,3.73-10.96,5.04l-2.32-3.3Z"/>
      </g>
    </g>
  </g>
</svg>